<svg width="200" height="42" viewBox="0 0 200 42" fill="none" xmlns="http://www.w3.org/2000/svg">
<g clip-path="url(#clip0_2799_149)">
<path d="M75.8241 19.768C75.8389 19.9283 75.8611 20.0887 75.8685 20.2508C75.9297 21.5593 75.95 22.8714 76.0667 24.1743C76.1411 24.705 76.3045 25.2195 76.55 25.6965C76.6468 25.8969 76.8047 26.0619 77.0012 26.1678C77.1978 26.2737 77.4229 26.3151 77.6445 26.2862C78.1389 26.2493 78.35 25.8789 78.476 25.4551C78.9204 23.9476 79.3537 22.4365 79.8074 20.9308C80.163 19.7533 80.7334 18.7102 81.7241 17.927C81.9265 17.788 82.1368 17.6607 82.3537 17.5455C82.3278 17.9491 82.3167 18.2163 82.2926 18.4798C82.1371 20.1495 81.976 21.8173 81.8223 23.4869C81.8102 23.679 81.8102 23.8716 81.8223 24.0637C81.9 25.9913 83.3482 26.8648 85.1111 26.0466C85.8013 25.7279 86.3683 25.1942 86.7265 24.5262C87.0847 23.8582 87.2145 23.0923 87.0963 22.3443C86.8889 21.1225 86.6463 19.9062 86.4037 18.6899C86.2074 17.7003 86.4685 16.8213 87.076 15.9809C87.1409 16.1513 87.1953 16.3255 87.2389 16.5025C87.5723 18.2323 87.9013 19.9627 88.226 21.6938C88.4163 22.7989 88.8221 23.8563 89.4204 24.8064C89.7253 25.2838 90.2036 25.6257 90.7555 25.7609C91.3074 25.8962 91.8905 25.8144 92.3834 25.5325C93.0519 25.1547 93.1797 24.7861 92.8334 24.1171C91.8371 22.1785 91.1667 20.1255 90.6 18.0357C90.3815 17.2249 90.5037 16.4932 90.8797 15.6787C91.6 16.6683 92.4 17.5363 92.6278 18.8337L91.8871 18.4135C92.2148 19.2391 92.5371 19.9523 92.7797 20.6913C93.1509 21.7243 93.4601 22.7785 93.7056 23.8481C93.9611 25.1141 93.6315 26.3083 92.9111 27.3882C92.4462 28.0562 92.2421 28.87 92.3371 29.6771C92.5 31.0997 93.763 31.7521 95.0334 31.061C96.3037 30.37 97.3056 29.3269 98.2778 28.2617C99.6111 26.8022 100.983 25.3813 102.352 23.9531C102.582 23.7391 102.83 23.5443 103.093 23.3708C103.443 23.0884 103.868 22.9111 104.316 22.8596C104.764 22.808 105.218 22.8843 105.624 23.0796C105.93 23.2105 106.237 23.3376 106.602 23.4906C106.817 23.052 107.027 22.622 107.232 22.2006C107.282 22.2006 107.33 22.1858 107.346 22.2006C109.061 23.8868 111.235 24.729 113.457 25.4772C117.865 26.968 122.417 27.7863 127.026 28.3391C132.081 28.9484 137.169 29.2389 142.261 29.209C149.198 29.1433 156.121 28.5797 162.976 27.5228C168.233 26.7269 173.446 25.6609 178.593 24.3291C178.791 24.2775 178.994 24.2443 179.233 24.1945C179.265 24.6092 179.272 24.9759 179.322 25.3353C179.535 26.8648 180.722 27.5559 182.056 26.7893C183.043 26.2217 183.898 25.42 184.798 24.705C185.046 24.4746 185.277 24.2283 185.493 23.9679C185.543 24.4175 185.578 24.7548 185.617 25.0902C185.687 25.7241 185.833 26.3175 186.559 26.511C187.285 26.7045 187.704 26.2512 188.072 25.7278L189.57 23.5919L189.709 23.6177C189.743 23.802 189.787 23.9992 189.807 24.1909C189.913 25.1676 190.341 25.984 191.165 26.5092C191.534 26.7277 191.965 26.8184 192.391 26.7672C193.132 26.6621 193.435 26.113 193.189 25.409C192.864 24.4499 192.485 23.5098 192.054 22.5931C190.993 20.3817 189.872 18.2126 188.791 16.0178C188.389 15.1977 188.406 14.3316 188.774 13.4378C189.804 14.1104 190.98 15.4649 191.28 16.3642L190.276 16.0417L190.187 16.1173C190.524 16.6296 190.854 17.1456 191.198 17.6524C192.219 19.1433 193.182 20.6655 193.746 22.3959C194.174 23.6074 194.242 24.9156 193.943 26.1646C193.685 27.1873 193.067 27.9448 192.232 28.5382C191.563 29.0155 190.565 28.9289 189.861 28.2544C189.389 27.8066 189.041 27.2279 188.594 26.6529C188.491 26.8943 188.389 27.1413 188.28 27.3901C187.909 28.2157 187.354 28.787 186.374 28.7796C185.419 28.7796 184.861 28.2267 184.509 27.4159C184.441 27.2574 184.365 27.1026 184.276 26.9109C183.963 27.3127 183.696 27.6978 183.385 28.0461C183.022 28.4773 182.551 28.8053 182.02 28.9969C181.488 29.1885 180.916 29.2369 180.359 29.1371C179.27 28.9805 178.706 28.4534 178.507 27.3643C178.444 27.0068 178.417 26.6437 178.367 26.2272C177.602 26.4428 176.861 26.6437 176.122 26.8593C167.863 29.2572 159.382 30.8223 150.807 31.531C143.088 32.195 135.322 32.0888 127.624 31.214C122.58 30.6298 117.582 29.795 112.72 28.2875C111.735 27.9816 110.782 27.5725 109.811 27.2113C109.587 27.1265 109.359 27.0473 109.059 26.9386V30.6833C107.763 29.8945 106.867 28.9786 106.685 27.5209C106.635 27.1228 106.628 26.7174 106.557 26.323C106.372 25.2984 105.606 24.8672 104.604 25.2173C103.733 25.514 103.039 26.0669 102.417 26.7211C101.017 28.1954 99.6389 29.6789 98.2148 31.1329C97.641 31.7228 97.0259 32.2715 96.3741 32.7749C95.5445 33.4107 94.5982 33.7369 93.5704 33.2725C92.5426 32.8081 92.1315 31.8627 92.0537 30.8086C91.9945 30.029 92.076 29.2385 92.0963 28.4552C92.0963 28.2507 92.1185 28.048 92.1334 27.7697C89.5593 28.3705 88.3593 26.9717 87.6371 24.6682C87.4982 25.2026 87.4093 25.5693 87.3056 25.9324C86.75 27.8858 85.3445 28.833 83.3223 28.6414C82.3963 28.5529 81.7741 28.0406 81.3686 27.2408C80.713 25.9508 80.7648 24.576 80.9241 23.1865C81.0389 22.2061 81.1093 21.2202 81.2037 20.2379L80.9667 20.1753C80.8225 20.4465 80.6987 20.728 80.5963 21.0175C80.113 22.8603 79.6537 24.7032 79.1741 26.546C79.0836 26.9015 78.9628 27.2486 78.813 27.5836C78.7182 27.8255 78.5512 28.0329 78.3346 28.1778C78.118 28.3227 77.862 28.3982 77.6011 28.3942C77.3401 28.3901 77.0866 28.3068 76.8746 28.1553C76.6625 28.0039 76.5021 27.7915 76.4148 27.5467C75.85 26.1461 75.3685 24.7216 75.4223 23.1847C75.4593 22.1195 75.526 21.0562 75.5834 19.9928C75.5961 19.9162 75.6179 19.8414 75.6482 19.7698L75.8241 19.768ZM108.065 27.8176C108.22 27.7153 108.341 27.5688 108.411 27.3972C108.482 27.2256 108.498 27.0369 108.459 26.8556C108.411 26.4539 107.889 26.019 107.265 25.8513C107.537 26.5184 107.793 27.145 108.065 27.8176Z" fill="white"/>
<path d="M36.687 24.858H34.6111C34.5777 25.4108 34.5444 25.9416 34.5111 26.4742C34.4833 26.9625 34.4648 27.4509 34.4259 27.9484C34.4065 28.29 34.3138 28.6235 34.1541 28.9264C33.9944 29.2293 33.7713 29.4947 33.5 29.7047C31.6481 31.1403 29.7963 32.5832 27.9 33.9746C26.7141 34.8438 25.266 35.2851 23.7944 35.2259C22.4555 35.1927 21.4592 34.5864 20.7796 33.4346C19.8537 31.8756 19.7037 30.2152 20.0388 28.4737C20.3944 26.6308 20.7981 24.8101 21.0555 22.9617C21.1963 21.9536 21.0814 20.9106 21.0814 19.8822L21.2666 19.8601C21.3648 20.4535 21.5685 21.0506 21.5444 21.6403C21.4888 22.9783 21.3407 24.3143 21.2 25.6467C21.0666 26.8943 20.8851 28.1383 20.7444 29.3859C20.7278 29.6325 20.7434 29.8803 20.7907 30.123C21.0759 32.1723 22.5666 33.2854 24.6222 32.9942C26.5851 32.7141 28.2277 31.7595 29.7203 30.5303C30.9907 29.4854 32.2037 28.3705 33.4481 27.2924C33.8629 26.933 33.9463 26.5368 33.7074 26.0319C33.1518 24.8635 32.65 23.6712 32.0796 22.512C31.7537 21.8467 31.6777 21.2331 32.0796 20.5733C32.2684 20.2148 32.436 19.8456 32.5814 19.4676C33.1148 20.2158 33.5981 20.9198 34.1092 21.6035C34.7277 22.4272 35.5407 22.8787 36.6037 22.7811C37.8037 22.6723 38.4814 21.9205 38.3203 20.7429C37.7296 16.4011 37.1074 12.0612 36.4833 7.72306C36.2777 6.3059 36.0277 4.89612 35.7963 3.48449C35.7776 3.32893 35.7383 3.1765 35.6796 3.03114C35.2296 2.07654 35.5814 1.24173 36.0666 0.303711C36.8555 1.98071 37.9888 3.3776 38.474 5.09515L38.3407 5.20019L37.2018 4.2935C37.2018 4.50174 37.2018 4.6289 37.2222 4.75422L39.2444 19.0732C39.4185 20.3098 39.2259 21.515 38.9018 22.7C38.7166 23.3947 38.2611 23.92 37.7018 24.3788C37.3688 24.626 37.1085 24.9576 36.9481 25.339C36.5629 26.5294 36.1611 27.7347 35.9666 28.962C35.6814 30.7662 36.5388 32.2423 38.0333 32.8652C38.9592 33.2504 39.8851 33.1895 40.8111 32.8468C42.1685 32.3455 43.3092 31.5107 44.3703 30.5542C46.8777 28.2894 49.3481 25.9821 51.9018 23.7688C53.4351 22.4401 55.0944 21.2589 56.8426 19.8988C56.6959 19.8317 56.5552 19.7521 56.4222 19.6611C55.7555 19.1082 55.0814 18.5849 54.4425 18.0136C53.3537 17.0406 52.9129 15.8316 53.1851 14.3813C53.4388 13.0158 54.2666 12.3247 55.6555 12.2823C59.174 12.1736 62.624 12.6324 66.0481 13.388C67.2814 13.6589 68.5203 13.9059 69.7518 14.1657C69.887 14.1933 70.0166 14.2357 70.1851 14.28C69.2592 15.8593 68.3425 17.2728 66.4 17.8459C64.3222 18.4577 62.3481 19.4142 60.324 20.2066C60.0111 20.3282 60.0018 20.4996 60.0796 20.7724C60.45 22.0624 60.7925 23.3671 61.1463 24.6645C61.2055 24.8819 61.2574 25.0994 61.3314 25.3795C60.2203 25.4274 59.1888 25.3795 58.3166 24.6608C57.2888 23.8149 57.9222 22.7166 57.9166 21.6532C56.9518 22.0624 56.2333 22.606 56.05 23.6509C55.7426 25.3887 55.4333 27.1247 55.1351 28.8643C54.6814 31.5162 56.7425 33.4954 59.3759 32.9334C61.2613 32.5025 63.0055 31.6013 64.4444 30.3147C65.587 29.3324 66.7111 28.3299 67.8555 27.3514C68.0565 27.2058 68.198 26.9929 68.2538 26.7518C68.3096 26.5107 68.276 26.2577 68.1592 26.0392C67.7888 25.2063 67.5129 24.3235 67.037 23.5588C66.2277 22.2577 66.0648 20.999 66.9703 19.6427L67.437 20.1955C67.9555 20.8129 68.4444 21.4561 68.9981 22.0384C69.4028 22.4587 69.9421 22.7254 70.5231 22.7927C71.1042 22.8599 71.6906 22.7235 72.1814 22.407C72.4322 22.2772 72.634 22.0701 72.7566 21.8166C72.8791 21.563 72.9158 21.2769 72.8611 21.0009C72.4907 18.3895 72.1592 15.7708 71.7592 13.165C71.2314 9.71335 70.6481 6.26905 70.0925 2.82106C69.9574 1.96861 70.1272 1.096 70.5722 0.355311C71.3277 1.9844 72.3814 3.36654 72.7944 5.04723L72.6555 5.16149L71.6851 4.24006C71.7148 4.65102 71.7148 4.93482 71.7555 5.21125C72.4166 9.63411 73.0981 14.057 73.7407 18.4798C73.9811 19.9777 73.7844 21.5128 73.174 22.9027C72.5018 24.412 71.6592 24.9298 70.0111 24.8653C69.7148 24.8524 69.4203 24.8653 69.0685 24.8653C69.0574 25.0939 69.0444 25.2763 69.0388 25.4606C69.0148 26.1977 69.0907 26.9459 68.9444 27.6536C68.7981 28.3612 68.574 29.0947 68.1407 29.6015C66.4111 31.5899 64.4759 33.3646 62.0555 34.5238C60.9816 35.0526 59.8051 35.3431 58.6074 35.3752C58.0346 35.4008 57.4646 35.2808 56.9514 35.0264C56.4382 34.7719 55.9985 34.3916 55.674 33.9212C54.5333 32.3842 54.3074 30.6372 54.5981 28.8293C54.8963 26.9699 55.3388 25.1326 55.7092 23.2842C55.7259 23.2031 55.7425 23.1202 55.787 22.888C55.5351 23.1073 55.3796 23.2326 55.2314 23.3671C52.145 26.2456 49.0586 29.1242 45.9722 32.0027C44.6672 33.2268 43.1953 34.2616 41.6 35.0766C40.8222 35.471 40.0111 35.7511 39.1296 35.7161C37.5277 35.6553 36.4351 34.8205 35.7666 33.4125C35.0666 31.9382 35.0463 30.3921 35.4222 28.8496C35.6963 27.7328 36.0944 26.6382 36.4407 25.5472C36.5166 25.3113 36.5981 25.1049 36.687 24.858ZM65.5296 16.0841C65.4461 16.0328 65.3595 15.9866 65.2703 15.9459C61.724 14.6799 58.0944 14.1933 54.3444 14.7886C54.1872 14.8387 54.0377 14.91 53.9 15.0005C53.9666 15.1507 54.0559 15.2899 54.1648 15.4133C55.4722 16.4969 56.7759 17.5842 58.1148 18.6291C58.2424 18.7053 58.3847 18.7538 58.5324 18.7716C58.6802 18.7894 58.83 18.776 58.9722 18.7323C59.6351 18.5148 60.2685 18.1905 60.9129 17.927C62.4259 17.3188 63.9388 16.7199 65.5296 16.0841Z" fill="white"/>
<path d="M11.7871 42.0611C11.6801 41.9314 11.5887 41.7898 11.5148 41.6391C10.4037 37.6308 8.42225 33.9654 6.88521 30.1249C6.55427 29.2612 6.32013 28.3638 6.18706 27.449C5.84262 25.3003 6.65187 23.533 8.2241 22.1047C9.43521 21.0119 10.3445 19.709 11.2297 18.3564C12.3097 16.6635 13.4979 15.0415 14.7871 13.5004C16.0222 12.0556 16.7685 12.1441 18.0778 13.5225C18.3537 13.8119 18.6148 14.1141 18.9926 14.5324C18.9926 14.0201 18.9741 13.6515 18.9926 13.2848C19.1463 10.8154 20.6704 9.39454 23.1556 9.51986C24.1426 9.57146 25.1278 9.8184 26.0982 10.0432C28.9778 10.7103 31.7537 11.8363 34.8926 11.9451C34.3371 12.837 33.8482 13.6331 33.3463 14.42C33.2963 14.4974 33.1704 14.5324 33.0741 14.5711C30.3704 15.7063 27.6537 16.8489 24.9259 17.9675C23.6972 18.4988 22.3649 18.7506 21.0259 18.7047C20.7482 18.6943 20.4775 18.6145 20.2389 18.4725C18.9704 17.6561 17.713 16.825 16.7574 15.6271C16.5906 15.4254 16.4045 15.2403 16.2019 15.0742C15.5315 14.5103 15.1352 14.5324 14.6352 15.2585C13.8574 16.3771 13.1222 17.5271 12.3759 18.666C12.0593 19.1488 11.7593 19.639 11.45 20.1255C11.4908 20.1882 11.5093 20.2435 11.5463 20.2674C13.6074 21.6035 14.3648 23.6104 14.5093 25.936C14.5093 26.0761 14.5222 26.2162 14.5315 26.3544C14.5834 27.0805 14.4852 27.18 13.7482 27.0344C12.4519 26.7782 11.4759 26.0263 10.7056 25.0183C10.2889 24.4654 10.013 23.8204 9.63706 23.1515C9.55941 23.1567 9.48248 23.1697 9.40743 23.1902C8.93366 23.3404 8.49644 23.5869 8.12351 23.9142C7.75059 24.2414 7.45011 24.6423 7.24115 25.0913C7.03219 25.5403 6.91931 26.0276 6.90968 26.5223C6.90005 27.017 6.99388 27.5083 7.18521 27.965C8.34076 30.7385 9.60187 33.4752 10.6074 36.3003C11.2259 38.0455 11.4519 39.9289 11.8519 41.7515C11.8411 41.8566 11.8194 41.9604 11.7871 42.0611ZM29.8148 13.6663L29.7778 13.541C29.6815 13.5096 29.5926 13.4709 29.4908 13.447C27.5834 12.9826 25.6852 12.4666 23.763 12.0814C22.9886 11.9534 22.1977 11.9608 21.4259 12.1035C20.1889 12.2989 19.5982 13.1798 19.7408 14.3997C19.9037 15.7782 20.6334 16.543 21.9093 16.4527C22.8359 16.4012 23.7499 16.215 24.6222 15.8998C26.3815 15.2327 28.0871 14.4219 29.8148 13.6663Z" fill="white"/>
<path d="M75.0758 0.305573C75.8165 1.99916 76.9036 3.40895 77.3165 5.11912L77.1073 5.23522C76.9406 5.00855 76.7851 4.77082 76.6017 4.55705C76.4884 4.44623 76.3644 4.34684 76.2314 4.26035C76.1658 4.4034 76.1263 4.5569 76.1147 4.71369C76.2591 5.80221 76.4165 6.89072 76.5869 7.97924C77.1814 11.7921 77.8017 15.6013 78.3721 19.4179C78.5984 21.0154 78.4765 22.6426 78.0147 24.189C77.9421 24.3934 77.8561 24.5929 77.7573 24.7861L77.6203 24.7769C77.5851 24.5687 77.5388 24.3604 77.5147 24.1503C77.0851 20.3688 76.7036 16.5799 76.2184 12.8057C75.8295 9.81104 75.3091 6.83298 74.8388 3.84755C74.7852 3.59157 74.7115 3.34017 74.6184 3.09566C74.2999 2.13185 74.5184 1.26017 75.0758 0.305573Z" fill="white"/>
<path d="M43.0888 24.8543C43.0522 24.7088 43.0298 24.56 43.0222 24.4102C43.1573 20.8571 42.5036 17.3852 41.9407 13.9059C41.3777 10.4266 40.8388 6.97305 40.287 3.50663C40.2667 3.29817 40.2155 3.09386 40.1351 2.90033C39.6666 1.9789 40.1055 1.19384 40.5055 0.366394C41.6666 2.02497 42.8259 4.61787 42.5851 5.2555L41.8444 4.28247L41.6592 4.37646C41.6777 4.5847 41.687 4.79479 41.7185 5.00119C42.3814 9.44002 43.045 13.8789 43.7092 18.3177C43.9536 19.9431 43.7814 21.5611 43.6055 23.1755C43.5425 23.7486 43.4203 24.3162 43.324 24.8856L43.0888 24.8543Z" fill="white"/>
<path d="M96.7297 24.7069C96.7563 24.1923 96.7532 23.6767 96.7204 23.1625C96.3889 20.319 96.0723 17.4718 95.6704 14.6375C95.1686 11.0937 94.5908 7.55906 94.039 4.02077C93.9968 3.69161 93.9173 3.36827 93.8019 3.05695C93.4075 2.09498 93.7575 1.26569 94.2278 0.31662C95.0167 1.96229 96.0223 3.38682 96.4964 5.05645L96.3445 5.15965L95.4186 4.30088L95.2741 4.33405C95.2945 4.62707 95.2908 4.92377 95.3371 5.21125C95.6815 7.35081 96.0649 9.483 96.3778 11.6262C96.7482 14.2062 97.1815 16.8065 97.3797 19.4142C97.5001 20.9824 97.2389 22.5839 97.126 24.1687C97.113 24.3641 96.9704 24.5521 96.889 24.7437L96.7297 24.7069Z" fill="white"/>
<path d="M31.0056 24.2332C30.8437 24.6975 30.6538 25.1517 30.4371 25.5933C29.6723 26.9496 28.6057 27.989 27.0612 28.4055C26.6711 28.5072 26.2651 28.5341 25.8649 28.4847C24.3112 28.3004 23.5205 26.8685 24.3631 25.5638C24.939 24.6718 25.8075 23.966 26.5482 23.181C26.6547 23.082 26.7673 22.9896 26.8853 22.9045C26.1445 22.2909 25.4575 22.5673 24.7816 22.9598C24.5408 22.2024 25.4427 21.2386 26.1168 21.2662C27.1834 21.3086 28.2482 21.4137 29.3131 21.5077C29.3927 21.5077 29.5353 21.6385 29.526 21.6919C29.5027 21.8203 29.4376 21.9375 29.3408 22.0255C28.5649 22.6244 27.7797 23.2105 26.9964 23.802C26.4408 24.224 25.8445 24.6073 25.3297 25.081C24.5445 25.8181 24.7945 26.6677 25.8334 26.9644C27.339 27.3956 28.9668 26.7801 29.989 25.3906C30.2853 24.987 30.5723 24.5779 30.8649 24.1724L31.0056 24.2332Z" fill="white"/>
<path d="M159.63 34.8021C160.641 34.6417 161.615 34.5312 162.57 34.3303C165.12 33.7922 167.415 32.6109 169.719 31.4573C170.376 31.1274 171.046 30.8215 171.706 30.4953C172.4 30.1525 173.002 30.241 173.583 30.7754C174.356 31.4941 174.695 31.4407 175.302 30.5911C175.461 30.3645 175.635 30.1507 175.822 29.9019L176.7 30.851C176.854 30.6225 176.985 30.4161 177.128 30.2189C177.27 30.0217 177.422 29.8337 177.574 29.6365C177.85 30.3331 177.622 31.3817 177.104 31.848C176.765 32.1539 176.402 32.1373 176.043 31.9069C175.824 31.7687 175.632 31.5937 175.42 31.4296C175.195 31.6526 175 31.8775 174.774 32.0654C174.198 32.5501 173.752 32.6183 173.152 32.1871C172.422 31.6655 171.713 31.684 170.93 32.0175C169.461 32.6367 167.98 33.2283 166.485 33.8088C164.4 34.6233 162.226 34.9145 159.993 34.9384C159.905 34.9384 159.817 34.9291 159.732 34.9108C159.715 34.9108 159.696 34.8703 159.63 34.8021Z" fill="white"/>
<path d="M92.4242 0.069663L91.4686 2.41194L91.3056 2.36955C91.3742 1.96228 91.4427 1.55501 91.5223 1.09061C91.3482 1.12931 91.2186 1.14774 91.0964 1.18828C86.3427 2.73997 82.0001 5.03248 78.189 8.28329C78.1142 8.35384 78.0316 8.41567 77.9427 8.46757C77.8742 8.50259 77.739 8.52654 77.7112 8.49337C77.6593 8.42887 77.613 8.2925 77.6482 8.23353C77.9242 7.76176 78.1223 7.17757 78.5279 6.85507C82.4094 3.75052 86.8874 1.46785 91.6871 0.147064C91.8556 0.100993 92.0279 0.0659779 92.2001 0.0328064C92.276 0.0364219 92.3512 0.0487899 92.4242 0.069663Z" fill="white"/>
<path d="M55.5148 9.34481C55.538 9.01373 55.6275 8.6906 55.7779 8.39439C55.9283 8.09818 56.1367 7.83486 56.3908 7.61989C59.1794 5.26018 62.374 3.42211 65.8204 2.19451C66.6704 1.88307 67.5333 1.6048 68.413 1.30441C68.5371 2.23874 67.9982 3.5656 67.2389 4.17927L67.7945 2.47278C63.1333 3.90284 59.15 6.2875 55.5148 9.34481Z" fill="white"/>
<path d="M67.1074 34.7873C67.8315 34.544 68.5593 34.31 69.2796 34.0502C71.0463 33.4273 72.7093 32.6256 74.0945 31.3301C74.387 31.0573 74.5408 30.8509 74.2371 30.4732C74.087 30.2968 74.0046 30.0731 74.0046 29.842C74.0046 29.6108 74.087 29.3872 74.2371 29.2108C74.5259 28.8183 74.8204 28.4294 75.1111 28.0406C75.8982 28.2802 76.8759 29.4338 76.963 30.217C77.063 31.1624 76.4704 31.6342 75.5463 31.2656C75.0926 31.0813 74.913 31.214 74.6722 31.5641C73.1167 33.8345 70.8352 34.7191 68.1908 34.8629C67.8408 34.8831 67.4889 34.8629 67.1389 34.8629L67.1074 34.7873ZM75.413 29.2587L74.3611 29.4946L75.3037 30.2317C75.3445 29.8779 75.3704 29.6291 75.413 29.2606V29.2587Z" fill="white"/>
<path d="M101.852 21.469C101.556 19.7054 101.208 17.9491 100.985 16.1763C100.861 15.1959 101.267 14.7333 102.215 14.3555C102.533 14.2284 102.848 14.0883 103.195 13.9409C102.639 13.3475 102.154 13.9243 101.528 13.8377C101.935 13.2553 102.295 12.6269 102.778 12.1183C102.92 11.9672 103.467 12.0483 103.737 12.1939C104.349 12.5523 104.942 12.941 105.515 13.3585C105.161 14.3684 104.578 15.0743 103.504 15.3046C103.076 15.3938 102.657 15.5227 102.254 15.6898C101.583 15.9699 101.432 16.3034 101.561 17.0166C101.732 17.9381 101.932 18.8595 102.052 19.7938C102.092 20.3458 102.096 20.8998 102.065 21.4524L101.852 21.469Z" fill="white"/>
<path d="M14.2685 38.6942C13.9259 36.8218 13.5593 34.955 13.2519 33.079C13.1019 32.1575 13.437 31.6342 14.2815 31.2251C14.6907 31.026 15.1148 30.8565 15.537 30.6722C15.1667 30.1875 15.0463 30.1967 14.0963 30.7809C14.0185 30.018 14.4093 29.5038 14.9259 29.0744C15.3426 28.728 15.813 28.9067 16.2111 29.115C16.701 29.3875 17.1702 29.6955 17.6148 30.0364C17.6626 30.086 17.6972 30.1468 17.7153 30.2131C17.7334 30.2794 17.7345 30.3492 17.7185 30.416C17.3296 31.2914 16.763 31.9198 15.7056 32.0322C15.2037 32.0838 14.7056 32.3345 14.2444 32.5722C13.7185 32.8468 13.837 33.348 13.9148 33.8272C14.1 34.9329 14.2722 36.0386 14.4037 37.1443C14.438 37.664 14.4417 38.1852 14.4148 38.7052L14.2685 38.6942Z" fill="white"/>
<path d="M16.376 22.9193L14.4445 21.8504L15.3575 19.7772L17.7093 20.7963L16.8519 22.6484L18.913 23.7099L17.8667 25.7923L15.6445 24.7585L16.376 22.9193Z" fill="white"/>
<path d="M186.409 9.40007C186.298 9.34294 186.224 9.3024 186.148 9.26554C185.513 8.96147 185.204 9.06467 185.015 9.75759C184.767 10.6643 184.593 11.6004 184.387 12.509C184.352 12.7067 184.277 12.895 184.165 13.0618C183.794 12.3726 183.441 11.6834 183.068 10.9757C182.826 11.0715 182.635 11.16 182.441 11.2227C182.314 11.2826 182.177 11.32 182.037 11.3332C181.833 11.3375 181.634 11.2722 181.473 11.1481C181.311 11.0241 181.197 10.8488 181.15 10.6514C180.952 10.058 181.15 9.17709 181.548 8.90987C181.72 8.78122 181.935 8.72191 182.149 8.74377C182.363 8.76563 182.561 8.86706 182.704 9.02781C183.047 9.44068 183.356 9.88005 183.63 10.3418C183.78 10.5684 183.9 10.8154 184.104 11.1803C184.307 10.4321 184.45 9.81103 184.648 9.20657C184.824 8.58882 185.062 7.99002 185.357 7.419C185.454 7.27335 185.583 7.1512 185.733 7.06157C185.884 6.97194 186.053 6.91712 186.228 6.90115C186.641 6.91221 186.798 7.34528 186.856 7.75256C186.917 8.04275 186.908 8.34317 186.83 8.62944C186.753 8.9157 186.609 9.17972 186.409 9.40007Z" fill="white"/>
<path d="M46.2111 7.1518C45.687 7.25316 45.274 7.44297 44.9148 7.37847C44.3592 7.27711 44.1944 6.77585 44.1981 6.24327C44.2018 5.71068 44.2481 5.13755 44.8592 4.8814C45.3629 4.67684 45.7518 4.93115 46.0333 5.33105C46.4333 5.9005 46.8 6.49021 47.2444 7.17391C47.374 6.69108 47.4592 6.29303 47.5889 5.90971C47.841 5.09608 48.1365 4.29638 48.474 3.51399C48.6018 3.23757 49.0037 2.92244 49.2815 2.92059C49.7389 2.92059 49.8018 3.42185 49.8574 3.79779C49.8904 4.07377 49.8835 4.35304 49.837 4.62708C49.7703 5.08227 49.6203 5.41582 49.0185 5.22417C48.5481 5.07305 48.2315 5.34948 48.1166 5.7973C47.8889 6.69293 47.6926 7.59593 47.4852 8.49709C47.437 8.71086 47.3963 8.92463 47.3222 9.28583L46.2111 7.1518Z" fill="white"/>
<path d="M84.1389 35.659L82.937 33.3573C82.8389 33.4291 82.7685 33.4752 82.7037 33.5286C82.3667 33.8161 82 34.0152 81.5556 33.7848C81.05 33.5194 80.9685 33.0348 80.9704 32.5298C80.9704 32.0544 81.0944 31.6084 81.5704 31.3965C81.7776 31.2916 82.0163 31.2664 82.2411 31.3255C82.4658 31.3847 82.6608 31.5241 82.7889 31.7171C83.1278 32.1594 83.4185 32.6385 83.7278 33.1029C83.8407 33.2706 83.9463 33.442 84.1167 33.7074C84.3204 32.8873 84.4519 32.1668 84.6833 31.4794C84.8862 30.8713 85.1571 30.2877 85.4907 29.7397C85.5833 29.6263 85.702 29.5367 85.8367 29.4786C85.9715 29.4206 86.1183 29.3957 86.2648 29.4062C86.4407 29.4412 86.6481 29.8429 86.6593 30.0899C86.661 30.6575 86.6301 31.2248 86.5667 31.789C86.5132 31.8009 86.4585 31.8064 86.4037 31.8056C85.1185 31.3965 84.8833 31.8443 84.6352 32.9961C84.4593 33.8161 84.3222 34.6602 84.1389 35.659Z" fill="white"/>
<path d="M31.6203 3.2652C31.7481 3.83096 31.8759 4.39672 32 4.96432C32.0333 5.11728 32 5.31815 32.087 5.41951C32.2687 5.60408 32.4685 5.77015 32.6833 5.91524C32.8018 5.70699 33.0203 5.49691 33.0185 5.28866C32.9837 4.92507 32.9079 4.56654 32.7926 4.21981C32.7223 3.98352 32.7248 3.7317 32.7997 3.49683C32.8746 3.26197 33.0186 3.05483 33.2129 2.90216C33.6685 4.14609 33.8944 5.35869 33.6074 6.62289C33.5927 6.72835 33.5558 6.82953 33.4992 6.91981C33.4425 7.01009 33.3673 7.08743 33.2784 7.14677C33.1896 7.2061 33.0892 7.24608 32.9838 7.2641C32.8783 7.28212 32.7703 7.27776 32.6666 7.25131C32.3144 7.17259 31.9675 7.07227 31.6277 6.95092C31.4926 7.12231 31.3574 7.31949 31.1926 7.50378C31.0675 7.65198 30.8999 7.75858 30.7122 7.80931C30.5245 7.86003 30.3258 7.85245 30.1426 7.78758C29.9624 7.73943 29.8046 7.63069 29.6959 7.47986C29.5872 7.32902 29.5343 7.14537 29.5463 6.96014C29.5352 6.42755 29.5463 5.89681 29.5463 5.27761L28.8889 5.65355C28.9396 5.28829 29.0719 4.93897 29.276 4.63124C29.4801 4.3235 29.7509 4.06517 30.0685 3.87519C30.2944 4.68973 29.6981 5.74016 30.7611 6.32251C30.9744 6.19876 31.1418 6.00969 31.2382 5.78351C31.3347 5.55732 31.355 5.30617 31.2963 5.06752C31.2425 4.6013 31.2351 4.13094 31.274 3.66326C31.308 3.51679 31.3669 3.37717 31.4481 3.25046L31.6203 3.2652Z" fill="white"/>
<path d="M104.983 7.39687C103.615 7.00434 103.552 7.03935 103.2 8.38464C103.091 8.80481 102.994 9.23051 102.902 9.65622C102.809 10.0819 102.733 10.4726 102.617 11.0365C102.285 10.4413 102.004 9.97503 101.761 9.48851C101.615 9.1955 101.459 9.05544 101.113 9.17339C99.7073 9.647 99.361 8.78639 99.6499 7.64934C99.7462 7.28077 99.8758 6.81453 100.322 6.82374C100.694 6.84419 101.043 7.00738 101.296 7.27893C101.742 7.83178 102.076 8.46573 102.517 9.16601C102.65 8.69793 102.748 8.30724 102.87 7.92577C103.12 7.14624 103.35 6.35934 103.654 5.60192C103.813 5.20571 104.087 4.74315 104.605 4.85372C105.161 4.97167 105.076 5.52084 105.076 5.94101C105.072 6.42568 105.017 6.91035 104.983 7.39687Z" fill="white"/>
<path d="M86.1889 11.348C86.2163 10.8857 86.2125 10.4221 86.1778 9.9603C86.0982 9.40744 85.9537 8.86564 86.3982 8.30173C86.9537 9.59173 87.2352 10.8559 86.8649 12.1865C86.7334 12.6619 86.3371 12.8444 85.8686 12.7393C85.538 12.6374 85.2155 12.5111 84.9037 12.3615C84.6664 12.5631 84.4152 12.7478 84.1519 12.9144C83.4482 13.2996 83.0186 13.1484 82.8037 12.3615C82.6686 11.8713 82.6852 11.3406 82.6315 10.7896L82.176 10.9849L82.0723 10.8909L83.1223 9.37611L83.2686 9.42034L83.2963 9.95661C83.3149 10.3565 83.3149 10.7601 83.3537 11.1582C83.3871 11.5065 83.5537 11.7608 83.9593 11.7331C84.3649 11.7055 84.5019 11.4383 84.5149 11.0918C84.5149 10.832 84.4482 10.5703 84.4537 10.3104C84.4607 9.87913 84.491 9.44851 84.5445 9.02044C84.5575 8.91908 84.6982 8.83616 84.7797 8.74217C84.8463 8.83247 84.95 8.91171 84.9741 9.01123C85.0828 9.36199 85.1481 9.72464 85.1686 10.0911C85.1519 10.7232 85.4871 11.0476 86.1889 11.348Z" fill="white"/>
<path d="M65.7408 5.76962C66.1945 7.01171 66.3741 8.19114 66.1908 9.40743C66.0723 10.1962 65.5556 10.4652 64.8186 10.1446C64.6112 10.0561 64.4186 9.93448 64.2834 9.86261C63.913 10.104 63.6149 10.3473 63.2723 10.5297C62.8334 10.7619 62.4556 10.609 62.2889 10.1612C62.1672 9.76873 62.0866 9.36484 62.0482 8.95593C62.0331 8.73012 62.0331 8.50356 62.0482 8.27775L61.5538 8.47863L61.4408 8.39017C61.7914 7.86311 62.1402 7.33544 62.4871 6.80715L62.6149 6.8348C62.6149 7.29551 62.6149 7.75623 62.6149 8.2151C62.6176 8.40699 62.6418 8.59799 62.6871 8.78454C62.7723 9.11994 63.0204 9.3374 63.3445 9.21577C63.5593 9.13653 63.8297 8.873 63.8501 8.66291C63.8945 8.23906 63.7315 7.79677 63.7612 7.37291C63.7852 7.00434 63.9464 6.63577 64.0593 6.2672C64.195 6.57775 64.3143 6.89516 64.4167 7.21811C64.5186 7.58668 64.5149 7.99211 64.6556 8.34041C64.7352 8.5376 65.013 8.6537 65.2019 8.80666C65.3278 8.60763 65.5501 8.41228 65.5593 8.20773C65.5436 7.89179 65.476 7.58053 65.3593 7.2863C65.2001 6.75924 65.326 6.28747 65.7408 5.76962Z" fill="white"/>
<path d="M104.039 30.5856C103.195 32.1428 102.152 33.5876 100.456 34.3745C99.7371 34.7062 98.9519 34.8905 98.1964 35.143L98.1334 34.9827C99.076 34.3045 100.009 33.6134 100.963 32.9555C102.337 32.0064 103.541 30.9099 104.278 29.3804C104.297 29.3312 104.326 29.2866 104.363 29.2495C104.602 29.0376 104.906 28.6211 105.072 28.669C105.239 28.7261 105.39 28.8199 105.515 28.9434C105.64 29.0669 105.736 29.2169 105.795 29.3822C105.891 29.8098 105.769 30.2944 105.687 30.7459C105.674 30.8215 105.391 30.9136 105.25 30.8915C104.857 30.8233 104.476 30.6999 104.039 30.5856Z" fill="white"/>
<path d="M46.1204 14.2302C46.0352 13.1079 46.4908 12.4021 47.4723 12.0999C47.7765 12.0126 48.0857 11.9437 48.3982 11.8935C48.863 11.8105 49.3241 11.746 49.7889 11.676C50.1852 12.9918 48.4074 15.7561 45.8723 16.3661C46.8223 15.616 47.7241 15.0116 48.1389 13.8414L46.1204 14.2302Z" fill="white"/>
<path d="M7.8704 15.0392L5.93151 15.4078C5.74633 14.5048 6.19448 13.6239 7.08151 13.3438C7.9204 13.0784 8.80744 12.9752 9.69448 12.7909C9.65559 14.7167 7.82781 16.9355 5.87225 17.4091C6.69633 16.6867 7.57781 16.1468 7.8704 15.0392Z" fill="white"/>
<path d="M57.4426 29.5536L60.1333 27.7513C61.5362 26.8439 62.6976 25.6123 63.5185 24.1614C63.7203 23.7928 64.0963 23.5293 64.3926 23.216C65.15 23.9531 65.4444 24.7658 65.0444 25.1952C64.5333 25.7481 63.9907 25.2192 63.4278 25.0902C62.4926 26.6898 61.4666 28.2452 59.6926 29.0616C59.0055 29.3767 58.2463 29.537 57.5185 29.7674L57.4426 29.5536Z" fill="white"/>
<path d="M13.2464 5.10254C13.0612 6.04424 13.6575 6.49021 14.1871 7.00253C14.839 7.63094 14.9038 8.95596 14.3723 9.6802C14.0279 10.1464 12.9279 10.4468 12.4593 10.128C12.2089 9.94958 12.0392 9.68008 11.9871 9.37797C11.8612 7.90553 12.3019 6.54181 12.9631 5.25181C12.9871 5.20758 13.0723 5.19284 13.2464 5.10254ZM12.8908 9.09049C13.3556 9.01124 13.6668 8.9707 13.9723 8.9062C14.0705 8.88409 14.2093 8.78826 14.2242 8.70717C14.2229 8.65058 14.2085 8.59504 14.1822 8.54487C14.1558 8.49469 14.1182 8.45123 14.0723 8.41784C13.8238 8.22703 13.5511 8.06964 13.2612 7.94976C13.0279 7.87051 12.6927 7.8226 12.5205 7.93501C12.3816 8.02347 12.3168 8.41784 12.3927 8.60766C12.476 8.81959 12.7556 8.96702 12.8908 9.09049Z" fill="white"/>
<path d="M184.415 15.487C184.406 16.2905 184.854 16.8065 185.359 17.3096C186.018 17.9638 186.031 19.475 185.411 20.1624C185.081 20.5309 184.311 20.7318 183.859 20.5309C183.368 20.3061 183.156 19.9007 183.15 19.3552C183.133 17.927 183.704 16.6978 184.415 15.487ZM185.526 18.9774C184.98 18.6088 184.559 18.3011 184.113 18.0375C183.974 18.003 183.826 18.0235 183.702 18.0947C183.672 18.4301 183.565 18.8576 183.728 19.0769C183.891 19.2962 184.331 19.3312 184.654 19.3257C184.913 19.3239 185.161 19.1359 185.535 18.9774H185.526Z" fill="white"/>
<path d="M189.815 30.2484L192.063 31.4333C191.754 32.1318 191.459 32.7952 191.137 33.5139L188.889 32.3584L189.815 30.2484Z" fill="white"/>
<path d="M47.6352 18.7323L49.8575 19.7625C49.5075 20.4664 49.176 21.1317 48.8167 21.8578L46.5723 20.8074C46.9426 20.0979 47.2797 19.4418 47.6352 18.7323Z" fill="white"/>
<path d="M52.2851 34.1847C52.1481 34.5293 52.0666 34.9218 51.8574 35.2093C51.5388 35.6571 51.037 35.7051 50.5277 35.5687C50.0185 35.4323 49.787 35.0803 49.7629 34.5717C49.7129 33.6982 50.024 32.9242 50.4444 32.1926C50.7444 31.6729 51.1111 31.1919 51.4481 30.6925L51.5574 30.7551C51.3388 31.3356 51.1129 31.9124 50.9055 32.4966C50.8028 32.7556 50.7319 33.026 50.6944 33.302C50.6129 34.1423 51.0759 34.4888 51.8537 34.1957C51.9518 34.1589 52.0518 34.1276 52.1499 34.0944L52.2851 34.1847Z" fill="white"/>
<path d="M54.0574 8.56894C54.0574 8.09717 54.0463 7.64751 54.0574 7.21444C54.0908 5.94286 53.8426 4.76528 53.0482 3.72406C52.8547 3.46643 52.7362 3.16074 52.7058 2.84052C52.6755 2.52031 52.7343 2.19796 52.8759 1.90884C54.4704 2.52067 55.1648 6.47913 54.0574 8.56894Z" fill="white"/>
<path d="M89.8815 12.2712C89.8001 11.3498 89.7945 10.4855 89.6241 9.65623C89.4869 9.07044 89.2407 8.51539 88.8982 8.01977C88.4575 7.35818 88.289 6.65974 88.5667 5.85809C90.1167 6.81822 90.8778 10.3842 89.8815 12.2712Z" fill="white"/>
<path d="M41.1907 28.6561C41.0055 29.7452 40.5981 30.1544 39.8278 30.0954C39.1426 30.0438 38.8055 29.7268 38.7926 29.0302C38.7685 27.7789 39.3092 26.7524 40.1981 25.866C40.1204 26.1701 40.0352 26.4742 39.963 26.7875C39.8822 27.0905 39.8204 27.3982 39.7778 27.7089C39.6778 28.6487 40.05 28.962 40.9407 28.7169C41.0018 28.6967 41.0704 28.6874 41.1907 28.6561Z" fill="white"/>
</g>
<defs>
<clipPath id="clip0_2799_149">
<rect width="200" height="42" fill="white"/>
</clipPath>
</defs>
</svg>
