<svg width="16" height="16" viewBox="0 0 16 16" fill="none" xmlns="http://www.w3.org/2000/svg">
<path d="M3.07733 12.6668C2.77022 12.6668 2.514 12.5642 2.30867 12.3588C2.10333 12.1535 2.00044 11.8971 2 11.5895V4.41083C2 4.10372 2.10289 3.8475 2.30867 3.64216C2.51444 3.43683 2.77044 3.33394 3.07667 3.3335H12.9233C13.23 3.3335 13.486 3.43638 13.6913 3.64216C13.8967 3.84794 13.9996 4.10416 14 4.41083V11.5902C14 11.8968 13.8971 12.1531 13.6913 12.3588C13.4856 12.5646 13.2296 12.6673 12.9233 12.6668H3.07733ZM8.156 7.94816C8.204 7.93127 8.25156 7.91061 8.29867 7.88616L13.118 4.73083C13.1811 4.69261 13.2222 4.64038 13.2413 4.57416C13.2604 4.50794 13.2569 4.44194 13.2307 4.37616C13.2138 4.29039 13.1578 4.22816 13.0627 4.1895C12.968 4.15127 12.8762 4.15905 12.7873 4.21283L8 7.3335L3.21333 4.2135C3.12444 4.15927 3.03467 4.14772 2.944 4.17883C2.85333 4.20994 2.79511 4.27127 2.76933 4.36283C2.74356 4.43127 2.74022 4.50083 2.75933 4.5715C2.77844 4.64216 2.81933 4.6955 2.882 4.7315L7.70133 7.88616C7.74844 7.91061 7.796 7.93127 7.844 7.94816C7.89244 7.96461 7.94444 7.97283 8 7.97283C8.05556 7.97283 8.10756 7.96461 8.156 7.94816Z" fill="#20665C"/>
</svg>
