<svg width="24" height="24" viewBox="0 0 24 24" fill="none" xmlns="http://www.w3.org/2000/svg">
<g clip-path="url(#clip0_3096_688)">
<path d="M23.998 11.9985V11.9925C23.998 8.44165 22.4521 5.25279 19.9973 3.05989L19.9853 3.04989C19.955 3.01723 19.9211 2.98805 19.8843 2.96289L19.8823 2.96189C17.702 1.04775 14.8983 -0.00535761 11.997 2.04977e-05C8.96525 2.04977e-05 6.19748 1.12597 4.08766 2.98389L4.10066 2.97289C4.07531 2.99227 4.05187 3.01404 4.03067 3.03789C2.76235 4.16107 1.74713 5.54192 1.05226 7.08705C0.357388 8.63217 -0.00128328 10.3073 3.44985e-06 12.0015C3.44985e-06 15.5513 1.54387 18.7402 3.99667 20.9341L4.00867 20.9441C4.04058 20.98 4.0761 21.0125 4.11466 21.0411L4.11666 21.0421C6.29631 22.9537 9.09793 24.0052 11.997 24C14.9096 24.0045 17.7232 22.9431 19.9073 21.0161L19.8943 21.0271C21.1847 19.9052 22.219 18.5192 22.9273 16.963C23.6357 15.4067 24.0015 13.7164 24 12.0065V11.9995L23.998 11.9985ZM19.5364 19.8032C18.9417 19.3227 18.3026 18.9001 17.6275 18.5412L17.5625 18.5092C18.1755 16.7423 18.5445 14.7054 18.5794 12.5865V12.5705H22.8401C22.6968 15.3119 21.5169 17.8963 19.5394 19.8002L19.5364 19.8032ZM12.571 18.2982C13.8538 18.3672 15.0527 18.6492 16.1587 19.1082L16.0867 19.0822C15.2007 21.1021 13.9538 22.49 12.571 22.795V18.2982ZM12.571 17.1543V12.5705H17.4385C17.3998 14.4686 17.0707 16.3497 16.4626 18.1482L16.5016 18.0172C15.2604 17.5063 13.9399 17.2146 12.5989 17.1553L12.572 17.1543H12.571ZM12.571 11.4265V6.84272C13.948 6.78007 15.3038 6.4786 16.5776 5.95176L16.4986 5.98076C17.0536 7.59969 17.3945 9.46561 17.4385 11.4055V11.4265H12.571ZM12.571 5.69877V1.20397C13.9538 1.50896 15.2007 2.8909 16.0867 4.91681C15.0527 5.34679 13.8538 5.62778 12.5999 5.69777L12.571 5.69877ZM15.4247 1.69895C16.6033 2.09121 17.7054 2.68388 18.6824 3.45087L18.6594 3.43287C18.2165 3.78086 17.7195 4.10884 17.1956 4.39383L17.1396 4.42183C16.7173 3.42202 16.135 2.49764 15.4157 1.68495L15.4247 1.69595V1.69895ZM11.425 1.20697V5.69877C10.1916 5.63593 8.97814 5.36197 7.83735 4.88881L7.90934 4.91481C8.79927 2.89489 10.0442 1.50796 11.427 1.20297L11.425 1.20697ZM6.85743 4.41883C6.31554 4.12697 5.7991 3.79013 5.31356 3.41187L5.33756 3.42987C6.28615 2.68535 7.35377 2.10655 8.49529 1.71795L8.57129 1.69495C7.87149 2.48614 7.30147 3.38323 6.88243 4.35283L6.85743 4.41883ZM11.427 6.84172V11.4255H6.55945C6.60345 9.46461 6.94442 7.59869 7.53837 5.84877L7.49938 5.97976C8.74063 6.48825 10.0601 6.77949 11.4001 6.84072L11.427 6.84172ZM11.427 12.5695V17.1533C10.05 17.2159 8.69425 17.5174 7.42038 18.0442L7.49938 18.0152C6.94442 16.3973 6.60345 14.5304 6.55945 12.5905V12.5695H11.427ZM11.427 18.2972V22.792C10.0442 22.487 8.79727 21.1051 7.91134 19.0792C8.94526 18.6492 10.1442 18.3692 11.3981 18.2992L11.427 18.2972ZM8.57729 22.2971C7.39977 21.9042 6.29801 21.313 5.31956 20.5491L5.34356 20.5671C5.78652 20.2191 6.28348 19.8912 6.80743 19.6062L6.86343 19.5782C7.28257 20.5782 7.86477 21.5017 8.58628 22.3111L8.57729 22.3011V22.2971ZM17.1406 19.5772C17.7205 19.8922 18.2175 20.2191 18.6844 20.5841L18.6604 20.5661C17.7119 21.3106 16.6442 21.8894 15.5027 22.2781L15.4267 22.3011C16.1264 21.5102 16.6964 20.6134 17.1156 19.6442L17.1406 19.5792V19.5772ZM22.8401 11.4265H18.5794C18.5482 9.35762 18.1912 7.30657 17.5215 5.34879L17.5625 5.48678C18.2688 5.11477 18.9375 4.67542 19.5594 4.17484L19.5354 4.19284C21.5095 6.08902 22.69 8.66417 22.8381 11.3975L22.8401 11.4265ZM4.46163 4.19384C5.03758 4.66182 5.68453 5.0908 6.37047 5.45578L6.43546 5.48778C5.82252 7.25471 5.45355 9.29162 5.41855 11.4105V11.4265H1.15691C1.30019 8.68515 2.48011 6.10073 4.45763 4.19684L4.46163 4.19384ZM1.15791 12.5705H5.41855C5.44982 14.6394 5.80683 16.6904 6.47646 18.6482L6.43546 18.5102C5.68453 18.9092 5.03858 19.3382 4.43863 19.8222L4.46263 19.8042C2.48845 17.908 1.30798 15.3328 1.15991 12.5995L1.15891 12.5715L1.15791 12.5705Z" fill="white"/>
</g>
<defs>
<clipPath id="clip0_3096_688">
<rect width="24" height="24" fill="white"/>
</clipPath>
</defs>
</svg>
