<svg width="32" height="32" viewBox="0 0 32 32" fill="none" xmlns="http://www.w3.org/2000/svg">
<path d="M13.0388 4.46957C13.7904 3.66539 14.1662 3.2633 14.5677 3.03929C15.458 2.54257 16.542 2.54257 17.4323 3.03929C17.8338 3.2633 18.2096 3.66539 18.9612 4.46957C19.2999 4.83188 19.4692 5.01304 19.6575 5.15849C20.0709 5.47776 20.5619 5.68113 21.0799 5.74767C21.3159 5.77799 21.5638 5.76962 22.0594 5.75287C23.1595 5.71569 23.7096 5.6971 24.1519 5.8226C25.1326 6.1009 25.8992 6.86746 26.1775 7.84824C26.303 8.29053 26.2844 8.84058 26.2472 9.94069C26.2305 10.4363 26.2221 10.6841 26.2524 10.9202C26.319 11.4382 26.5223 11.9292 26.8416 12.3426C26.9871 12.5309 27.1682 12.7002 27.5305 13.0388C28.3347 13.7904 28.7368 14.1662 28.9608 14.5677C29.4575 15.458 29.4575 16.5421 28.9608 17.4324C28.7368 17.8339 28.3347 18.2097 27.5305 18.9613C27.1682 19.2999 26.9871 19.4693 26.8416 19.6576C26.5223 20.071 26.319 20.5619 26.2524 21.08C26.2221 21.316 26.2305 21.5638 26.2472 22.0595C26.2844 23.1596 26.303 23.7096 26.1775 24.1519C25.8992 25.1327 25.1326 25.8993 24.1519 26.1776C23.7096 26.3031 23.1595 26.2845 22.0594 26.2473C21.5638 26.2305 21.3159 26.2222 21.0799 26.2525C20.5619 26.319 20.0709 26.5224 19.6575 26.8417C19.4692 26.9871 19.2999 27.1683 18.9612 27.5306C18.2096 28.3348 17.8338 28.7369 17.4323 28.9609C16.542 29.4576 15.458 29.4576 14.5677 28.9609C14.1662 28.7369 13.7904 28.3348 13.0388 27.5306C12.7001 27.1683 12.5308 26.9871 12.3425 26.8417C11.9291 26.5224 11.4381 26.319 10.9201 26.2525C10.6841 26.2222 10.4363 26.2305 9.94062 26.2473C8.84051 26.2845 8.29045 26.3031 7.84816 26.1776C6.86739 25.8993 6.10082 25.1327 5.82252 24.1519C5.69702 23.7096 5.71561 23.1596 5.75279 22.0595C5.76954 21.5638 5.77791 21.316 5.7476 21.08C5.68105 20.5619 5.47768 20.071 5.15841 19.6576C5.01296 19.4693 4.83181 19.2999 4.4695 18.9613C3.66531 18.2097 3.26322 17.8339 3.03921 17.4324C2.54249 16.5421 2.54249 15.458 3.03921 14.5677C3.26322 14.1662 3.66531 13.7904 4.4695 13.0388C4.83181 12.7002 5.01296 12.5309 5.15841 12.3426C5.47768 11.9292 5.68105 11.4382 5.7476 10.9202C5.77791 10.6841 5.76954 10.4363 5.75279 9.94069C5.71561 8.84058 5.69702 8.29053 5.82252 7.84824C6.10082 6.86746 6.86739 6.1009 7.84816 5.8226C8.29045 5.6971 8.84051 5.71569 9.94062 5.75287C10.4363 5.76962 10.6841 5.77799 10.9201 5.74767C11.4381 5.68113 11.9291 5.47776 12.3425 5.15849C12.5308 5.01304 12.7001 4.83188 13.0388 4.46957Z" stroke="#20665C" stroke-width="1.5"/>
<path d="M22.6667 13.3334V21.3334M19.3333 13.3334V19.3334C19.3333 20.438 18.4379 21.3334 17.3333 21.3334C16.2288 21.3334 15.3333 20.438 15.3333 19.3334M15.3333 10.6667V19.3334M15.3333 19.3334V13.3334M15.3333 19.3334C15.3333 20.438 14.4379 21.3334 13.3333 21.3334C12.2288 21.3334 11.3333 20.438 11.3333 19.3334V13.3334C11.3333 13.3334 8 14.0001 8 17.3334" stroke="#20665C" stroke-width="1.5" stroke-linecap="round" stroke-linejoin="round"/>
</svg>
