<svg width="32" height="32" viewBox="0 0 32 32" fill="none" xmlns="http://www.w3.org/2000/svg">
<path d="M4 29.3334V7.98768C4 7.01053 4 6.52195 4.27183 6.16356C4.54366 5.80518 5.01342 5.67442 5.95295 5.41289L15.2863 2.81483C15.6409 2.71611 15.8183 2.66675 16 2.66675C16.1817 2.66675 16.3591 2.71611 16.7137 2.81483L26.0471 5.41289C26.9866 5.67442 27.4563 5.80518 27.7282 6.16356C28 6.52195 28 7.01053 28 7.98768V29.3334" stroke="#20665C" stroke-width="1.5"/>
<path d="M2.66669 29.3335H29.3334" stroke="#20665C" stroke-width="1.5" stroke-linecap="round"/>
<path d="M4 12.0002L15.4215 9.39859C15.8025 9.3118 16.1975 9.3118 16.5785 9.39858L28 12.0002" stroke="#20665C" stroke-width="1.5"/>
<path d="M26.2 16.9334L28 17.3334M20.8 15.7334L22 16.0001M17.2 14.9334L16 14.6667L14.8 14.9334M5.8 16.9334L4 17.3334M11.2 15.7334L10 16.0001" stroke="#20665C" stroke-width="1.5" stroke-linecap="round"/>
<path d="M16 9.3335V29.3335" stroke="#20665C" stroke-width="1.5"/>
</svg>
