<svg width="32" height="32" viewBox="0 0 32 32" fill="none" xmlns="http://www.w3.org/2000/svg">
<path d="M24.2547 4.10348L25.1933 5.99612C25.3213 6.25958 25.6626 6.51229 25.9506 6.56068L27.6517 6.84566C28.7396 7.02847 28.9955 7.82424 28.2116 8.60925L26.8891 9.9427C26.6651 10.1685 26.5425 10.604 26.6118 10.9159L26.9904 12.5666C27.2891 13.8732 26.6011 14.3786 25.4546 13.6957L23.8601 12.744C23.5721 12.572 23.0975 12.572 22.8042 12.744L21.2097 13.6957C20.0685 14.3786 19.3753 13.8678 19.6739 12.5666L20.0525 10.9159C20.1219 10.604 19.9992 10.1685 19.7752 9.9427L18.4527 8.60925C17.6741 7.82424 17.9248 7.02847 19.0127 6.84566L20.7138 6.56068C20.9964 6.51229 21.3377 6.25958 21.4657 5.99612L22.4043 4.10348C22.9162 3.07651 23.7481 3.07651 24.2547 4.10348Z" stroke="#20665C" stroke-width="1.5" stroke-linecap="round" stroke-linejoin="round"/>
<path d="M3.33331 15.7398C3.33331 22.8791 9.12084 28.6666 16.2601 28.6666C22.1346 28.6666 27.0939 24.7481 28.6666 19.3822C26.7721 20.7587 24.4408 21.5705 21.9199 21.5705C15.5739 21.5705 10.4294 16.426 10.4294 10.08C10.4294 7.55908 11.2412 5.22778 12.6177 3.33325C7.25184 4.90604 3.33331 9.8653 3.33331 15.7398Z" stroke="#20665C" stroke-width="1.5" stroke-linejoin="round"/>
</svg>
