<svg width="32" height="32" viewBox="0 0 32 32" fill="none" xmlns="http://www.w3.org/2000/svg">
<path d="M26 16.681C26 14.7025 24.8149 11.4188 20.0748 8.78089C14.1496 5.48354 9.75298 6.48427 8.22444 8.78089C6.90771 10.7593 6.24938 13.3971 12.1746 19.9918H9.99835C8.74286 19.9918 8.1133 19.9936 7.72293 20.3833C7.33331 20.7736 7.33331 21.4014 7.33331 22.6569C7.33331 23.9124 7.33331 24.5401 7.72293 24.9305C8.1133 25.3201 8.74286 25.3219 9.99835 25.3219H12.6666C14.22 25.4253 17.3268 24.8683 17.3268 21.8126M26 16.681C25.3333 17.1115 23.3333 19.176 20.6666 18.6593L22 21.9906C22.8889 22.2127 24.8 23.7229 25.3333 25.3219H20.8808C19.9239 25.3219 19.0403 24.8095 18.5655 23.9791L17.3268 21.8126M26 16.681H26.3435C28.3629 16.681 30 18.317 30 20.3352C30 22.3533 28.3629 23.9894 26.3435 23.9894H24.6666M20.0748 13.9955C18.9465 13.9955 17.5911 14.3901 16.4028 14.8571C15.0343 15.3951 14.5906 17.0273 15.3202 18.3033L17.3268 21.8126" stroke="#20665C" stroke-width="1.5" stroke-linecap="round" stroke-linejoin="round"/>
<path d="M7.33347 20.6666C5.99842 20.6666 4.39635 18.6666 3.3283 18.6666C2.22531 18.6666 2.03359 19.1217 2.00026 22.6634C1.9864 24.1361 2.52534 25.3333 4 25.3333" stroke="#20665C" stroke-width="1.5" stroke-linecap="round" stroke-linejoin="round"/>
</svg>
