<svg width="32" height="32" viewBox="0 0 32 32" fill="none" xmlns="http://www.w3.org/2000/svg">
<path d="M25.2909 13.8066C24.8047 11.1102 23.2912 9.10233 21.9755 7.92298C21.5927 7.5798 21.4012 7.40821 20.9784 7.2494C20.5555 7.0906 20.192 7.0906 19.465 7.0906H17.8683C17.1413 7.0906 16.7778 7.0906 16.355 7.2494C15.9321 7.40821 15.7407 7.5798 15.3578 7.92298C14.0421 9.10233 12.5286 11.1102 12.0424 13.8066C11.6807 15.8128 13.6883 17.3332 15.9321 17.3332H21.4012C23.645 17.3332 25.6526 15.8128 25.2909 13.8066Z" stroke="#20665C" stroke-width="1.5"/>
<path d="M5.33333 18.6665H8.52642C8.91862 18.6665 9.30543 18.7549 9.65622 18.9246L12.3789 20.2419C12.7296 20.4116 13.1165 20.5 13.5087 20.5H14.8988C16.2434 20.5 17.3333 21.5547 17.3333 22.8558C17.3333 22.9084 17.2973 22.9546 17.245 22.9691L13.8572 23.9058C13.2494 24.0738 12.5987 24.0153 12.0333 23.7417L9.1228 22.3335M17.3333 21.9998L23.457 20.1184C24.5426 19.7802 25.7161 20.1812 26.3961 21.1229C26.8878 21.8038 26.6876 22.7787 25.9713 23.1921L15.9505 28.9739C15.3132 29.3416 14.5612 29.4313 13.8602 29.2233L5.33333 26.6931" stroke="#20665C" stroke-width="1.5" stroke-linecap="round" stroke-linejoin="round"/>
</svg>
